# Blender v2.78 (sub 0) OBJ File: ''
# www.blender.org
mtllib m.mtl
o Plane
v -1.000000 1.000000 0.000000
v -1.000000 -1.000000 0.000000
v 1.000000 1.000000 0.000000
v 1.000000 -1.000000 0.000000
v -1.000000 1.000000 3.942513
v 1.000000 1.000000 3.942513
v 0.000000 1.000000 0.000000
v -1.000000 0.000000 0.000000
v 0.000000 -1.000000 0.000000
v 1.000000 0.000000 0.000000
v 0.000000 1.000000 3.942513
v -1.000000 0.000000 3.942513
v 1.000000 0.000000 3.942513
v 1.000000 1.000000 1.971257
v 1.000000 -1.000000 1.971257
v -1.000000 -1.000000 1.971257
v -1.000000 1.000000 1.971257
v 0.000000 1.000000 1.971257
v 0.000000 -1.000000 1.971257
v -1.000000 0.000000 1.971257
v 1.000000 0.000000 1.971257
v 0.000000 0.000000 3.942513
v 0.000000 0.000000 0.000000
v -0.500000 1.000000 0.000000
v -1.000000 -0.500000 0.000000
v 0.500000 -1.000000 0.000000
v 1.000000 0.500000 0.000000
v -0.500000 1.000000 3.942513
v -1.000000 -0.500000 3.942513
v 1.000000 0.500000 3.942513
v 1.000000 1.000000 2.956885
v 1.000000 -1.000000 0.985628
v -1.000000 -1.000000 2.956885
v -1.000000 1.000000 0.985628
v 0.500000 1.000000 0.000000
v -1.000000 0.500000 0.000000
v -0.500000 -1.000000 0.000000
v 1.000000 -0.500000 0.000000
v 0.500000 1.000000 3.942513
v -1.000000 0.500000 3.942513
v 1.000000 -0.500000 3.942513
v 1.000000 1.000000 0.985628
v 1.000000 -1.000000 2.956885
v -1.000000 -1.000000 0.985628
v -1.000000 1.000000 2.956885
v 0.000000 1.000000 2.956885
v 0.000000 1.000000 0.985628
v 0.500000 1.000000 1.971257
v -0.500000 1.000000 1.971257
v 0.000000 -1.000000 2.956885
v 0.000000 -1.000000 0.985628
v -0.500000 -1.000000 1.971257
v 0.500000 -1.000000 1.971257
v -1.000000 0.000000 2.956885
v -1.000000 0.000000 0.985628
v -1.000000 0.500000 1.971257
v -1.000000 -0.500000 1.971257
v 1.000000 0.000000 2.956885
v 1.000000 0.000000 0.985628
v 1.000000 -0.500000 1.971257
v 1.000000 0.500000 1.971257
v 0.500000 0.000000 3.942513
v -0.500000 0.000000 3.942513
v 0.000000 0.500000 3.942513
v 0.000000 -0.500000 3.942513
v 0.000000 -0.500000 0.000000
v 0.000000 0.500000 0.000000
v -0.500000 0.000000 0.000000
v 0.500000 0.000000 0.000000
v 0.500000 0.500000 0.000000
v -0.500000 0.500000 0.000000
v -0.500000 -0.500000 0.000000
v -0.500000 -0.500000 3.942513
v -0.500000 0.500000 3.942513
v 0.500000 0.500000 3.942513
v 1.000000 0.500000 0.985628
v 1.000000 -0.500000 0.985628
v 1.000000 -0.500000 2.956885
v -1.000000 -0.500000 0.985628
v -1.000000 0.500000 0.985628
v -1.000000 0.500000 2.956885
v 0.500000 -1.000000 0.985628
v -0.500000 -1.000000 0.985628
v -0.500000 -1.000000 2.956885
v -0.500000 1.000000 0.985628
v 0.500000 1.000000 0.985628
v 0.500000 1.000000 2.956885
v -0.500000 1.000000 2.956885
v 0.500000 -1.000000 2.956885
v -1.000000 -0.500000 2.956885
v 1.000000 0.500000 2.956885
v 0.500000 -0.500000 3.942513
v 0.500000 -0.500000 0.000000
v 0.000000 -0.903075 1.132267
v 0.000000 -0.903075 1.824618
v 0.351223 -0.903075 1.824618
v -0.351223 -0.903075 1.824618
v 0.351223 -0.903075 1.132267
v -0.351223 -0.903075 1.132267
v -1.000000 -1.000000 3.600047
v -1.000000 -0.657534 3.942513
v -1.000000 -0.973931 3.731103
v -1.000000 -0.899694 3.842207
v -1.000000 -0.788590 3.916445
v 1.000000 -0.657534 3.942513
v 1.000000 -1.000000 3.600047
v 1.000000 -0.788590 3.916445
v 1.000000 -0.899694 3.842207
v 1.000000 -0.973931 3.731103
v 0.000000 -1.000000 3.600047
v 0.000000 -0.657534 3.942513
v 0.000000 -0.973931 3.731103
v 0.000000 -0.899694 3.842207
v 0.000000 -0.788590 3.916445
v 0.500000 -0.657534 3.942513
v 0.500000 -1.000000 3.600047
v 0.500000 -0.788590 3.916445
v 0.500000 -0.899694 3.842207
v 0.500000 -0.973931 3.731103
v -0.500000 -0.657534 3.942513
v -0.500000 -1.000000 3.600047
v -0.500000 -0.788590 3.916445
v -0.500000 -0.899694 3.842207
v -0.500000 -0.973931 3.731103
vn 0.0000 0.0000 -1.0000
vn 1.0000 0.0000 0.0000
vn 0.0000 -1.0000 0.0000
vn 0.0000 0.0000 1.0000
vn 0.0000 1.0000 0.0000
vn 0.0000 -0.8342 0.5514
vn -1.0000 0.0000 0.0000
vn 0.5459 -0.8379 0.0000
vn 0.0000 -0.8342 -0.5514
vn -0.5459 -0.8379 0.0000
vn 0.0000 -0.9808 0.1951
vn 0.0000 -0.8315 0.5556
vn 0.0000 -0.5556 0.8315
vn 0.0000 -0.1951 0.9808
usemtl Material.001
s off
f 38//1 26//1 93//1
f 105//2 108//2 106//2
f 31//2 30//2 91//2
f 84//3 100//3 33//3
f 115//4 41//4 92//4
f 45//5 28//5 88//5
f 46//5 39//5 87//5
f 47//5 48//5 86//5
f 34//5 49//5 85//5
f 89//3 110//3 50//3
f 51//6 98//6 94//6
f 32//3 53//3 82//3
f 54//7 40//7 81//7
f 55//7 56//7 80//7
f 44//7 57//7 79//7
f 58//2 41//2 78//2
f 59//2 60//2 77//2
f 42//2 61//2 76//2
f 62//4 30//4 75//4
f 63//4 64//4 74//4
f 66//1 37//1 72//1
f 67//1 68//1 71//1
f 27//1 69//1 70//1
f 70//1 23//1 67//1
f 35//1 67//1 7//1
f 3//1 70//1 35//1
f 71//1 8//1 36//1
f 24//1 36//1 1//1
f 7//1 71//1 24//1
f 72//1 2//1 25//1
f 68//1 25//1 8//1
f 23//1 72//1 68//1
f 73//4 22//4 63//4
f 29//4 63//4 12//4
f 43//3 116//3 89//3
f 74//4 11//4 28//4
f 40//4 28//4 5//4
f 12//4 74//4 40//4
f 75//4 6//4 39//4
f 64//4 39//4 11//4
f 22//4 75//4 64//4
f 76//2 21//2 59//2
f 27//2 59//2 10//2
f 3//2 76//2 27//2
f 77//2 15//2 32//2
f 38//2 32//2 4//2
f 10//2 77//2 38//2
f 50//3 121//3 84//3
f 60//2 43//2 15//2
f 21//2 78//2 60//2
f 79//7 20//7 55//7
f 25//7 55//7 8//7
f 2//7 79//7 25//7
f 80//7 17//7 34//7
f 36//7 34//7 1//7
f 8//7 80//7 36//7
f 81//7 5//7 45//7
f 56//7 45//7 17//7
f 20//7 81//7 56//7
f 83//8 97//8 52//8
f 26//3 51//3 9//3
f 4//3 82//3 26//3
f 83//3 16//3 44//3
f 37//3 44//3 2//3
f 9//3 83//3 37//3
f 101//4 73//4 29//4
f 52//3 33//3 16//3
f 19//3 84//3 52//3
f 85//5 18//5 47//5
f 24//5 47//5 7//5
f 1//5 85//5 24//5
f 86//5 14//5 42//5
f 35//5 42//5 3//5
f 7//5 86//5 35//5
f 87//5 6//5 31//5
f 48//5 31//5 14//5
f 18//5 87//5 48//5
f 88//5 11//5 46//5
f 49//5 46//5 18//5
f 17//5 88//5 49//5
f 111//4 92//4 65//4
f 53//3 50//3 19//3
f 15//3 89//3 53//3
f 90//7 12//7 54//7
f 57//7 54//7 20//7
f 16//7 90//7 57//7
f 91//2 13//2 58//2
f 61//2 58//2 21//2
f 14//2 91//2 61//2
f 92//4 13//4 62//4
f 65//4 62//4 22//4
f 120//4 65//4 73//4
f 93//1 9//1 66//1
f 69//1 66//1 23//1
f 10//1 93//1 69//1
f 94//3 97//3 99//3
f 98//3 95//3 94//3
f 19//9 97//9 95//9
f 53//10 98//10 82//10
f 51//6 99//6 83//6
f 19//9 96//9 53//9
f 106//11 119//11 116//11
f 109//12 118//12 119//12
f 108//13 117//13 118//13
f 107//14 115//14 117//14
f 110//11 124//11 121//11
f 112//12 123//12 124//12
f 113//13 122//13 123//13
f 114//14 120//14 122//14
f 116//11 112//11 110//11
f 119//12 113//12 112//12
f 118//13 114//13 113//13
f 117//14 111//14 114//14
f 121//11 102//11 100//11
f 124//12 103//12 102//12
f 123//13 104//13 103//13
f 122//14 101//14 104//14
f 102//7 101//7 100//7
f 38//1 4//1 26//1
f 106//2 43//2 78//2
f 78//2 41//2 106//2
f 105//2 107//2 108//2
f 108//2 109//2 106//2
f 106//2 41//2 105//2
f 31//2 6//2 30//2
f 84//3 121//3 100//3
f 115//4 105//4 41//4
f 45//5 5//5 28//5
f 46//5 11//5 39//5
f 47//5 18//5 48//5
f 34//5 17//5 49//5
f 89//3 116//3 110//3
f 51//6 82//6 98//6
f 32//3 15//3 53//3
f 54//7 12//7 40//7
f 55//7 20//7 56//7
f 44//7 16//7 57//7
f 58//2 13//2 41//2
f 59//2 21//2 60//2
f 42//2 14//2 61//2
f 62//4 13//4 30//4
f 63//4 22//4 64//4
f 66//1 9//1 37//1
f 67//1 23//1 68//1
f 27//1 10//1 69//1
f 70//1 69//1 23//1
f 35//1 70//1 67//1
f 3//1 27//1 70//1
f 71//1 68//1 8//1
f 24//1 71//1 36//1
f 7//1 67//1 71//1
f 72//1 37//1 2//1
f 68//1 72//1 25//1
f 23//1 66//1 72//1
f 73//4 65//4 22//4
f 29//4 73//4 63//4
f 43//3 106//3 116//3
f 74//4 64//4 11//4
f 40//4 74//4 28//4
f 12//4 63//4 74//4
f 75//4 30//4 6//4
f 64//4 75//4 39//4
f 22//4 62//4 75//4
f 76//2 61//2 21//2
f 27//2 76//2 59//2
f 3//2 42//2 76//2
f 77//2 60//2 15//2
f 38//2 77//2 32//2
f 10//2 59//2 77//2
f 50//3 110//3 121//3
f 60//2 78//2 43//2
f 21//2 58//2 78//2
f 79//7 57//7 20//7
f 25//7 79//7 55//7
f 2//7 44//7 79//7
f 80//7 56//7 17//7
f 36//7 80//7 34//7
f 8//7 55//7 80//7
f 81//7 40//7 5//7
f 56//7 81//7 45//7
f 20//7 54//7 81//7
f 83//8 99//8 97//8
f 26//3 82//3 51//3
f 4//3 32//3 82//3
f 83//3 52//3 16//3
f 37//3 83//3 44//3
f 9//3 51//3 83//3
f 101//4 120//4 73//4
f 52//3 84//3 33//3
f 19//3 50//3 84//3
f 85//5 49//5 18//5
f 24//5 85//5 47//5
f 1//5 34//5 85//5
f 86//5 48//5 14//5
f 35//5 86//5 42//5
f 7//5 47//5 86//5
f 87//5 39//5 6//5
f 48//5 87//5 31//5
f 18//5 46//5 87//5
f 88//5 28//5 11//5
f 49//5 88//5 46//5
f 17//5 45//5 88//5
f 111//4 115//4 92//4
f 53//3 89//3 50//3
f 15//3 43//3 89//3
f 90//7 29//7 12//7
f 57//7 90//7 54//7
f 16//7 33//7 90//7
f 91//2 30//2 13//2
f 61//2 91//2 58//2
f 14//2 31//2 91//2
f 92//4 41//4 13//4
f 65//4 92//4 62//4
f 120//4 111//4 65//4
f 93//1 26//1 9//1
f 69//1 93//1 66//1
f 10//1 38//1 93//1
f 94//3 95//3 97//3
f 98//3 96//3 95//3
f 19//9 52//9 97//9
f 53//10 96//10 98//10
f 51//6 94//6 99//6
f 19//9 95//9 96//9
f 106//11 109//11 119//11
f 109//12 108//12 118//12
f 108//13 107//13 117//13
f 107//14 105//14 115//14
f 110//11 112//11 124//11
f 112//12 113//12 123//12
f 113//13 114//13 122//13
f 114//14 111//14 120//14
f 116//11 119//11 112//11
f 119//12 118//12 113//12
f 118//13 117//13 114//13
f 117//14 115//14 111//14
f 121//11 124//11 102//11
f 124//12 123//12 103//12
f 123//13 122//13 104//13
f 122//14 120//14 101//14
f 29//7 100//7 101//7
f 33//7 100//7 90//7
f 102//7 103//7 104//7
f 104//7 101//7 102//7
f 90//7 100//7 29//7
